<svg width="44" height="43" viewBox="0 0 44 43" fill="none" xmlns="http://www.w3.org/2000/svg">
<path fill-rule="evenodd" clip-rule="evenodd" d="M34.6519 1.52574C33.593 0.535128 32.1937 -0.0110851 30.7437 0.000170561C29.0951 0.00356156 27.515 0.659803 26.3497 1.82582L25.8389 2.34024L25.3244 1.82225C24.1591 0.659089 22.5805 0.0039188 20.934 0.000170561C19.484 -0.0110851 18.0847 0.535128 17.0259 1.52574C14.677 3.73417 14.5634 7.42835 16.7715 9.77681C16.8129 9.82075 16.8547 9.86398 16.8972 9.90649L25.8281 18.8374L34.759 9.90649C37.0446 7.63304 37.0543 3.93708 34.7808 1.65149C34.7383 1.60898 34.6954 1.56682 34.6519 1.52574ZM43.4256 23.3993C42.0502 22.4669 40.4319 22.7313 38.9994 23.56C37.5669 24.3888 29.3326 31.4371 29.3326 31.4371H21.2269C20.8079 31.3914 20.4792 31.0566 20.441 30.6369C20.4503 30.2068 20.7968 29.8602 21.2269 29.851H26.1854C27.9215 29.851 29.8649 28.7185 29.8649 26.7109C29.8649 24.5674 27.9215 23.5708 26.1854 23.5708H22.588C21.3806 23.5708 20.1588 23.4993 19.2157 22.9956C17.8989 22.3265 16.4414 21.9811 14.9646 21.9882C12.5268 21.9653 10.1823 22.9245 8.45934 24.6496L0 32.9839L9.42388 42.4078L12.564 39.2677H28.4717C30.0521 39.2655 31.5771 38.685 32.7585 37.6351L43.5292 25.5534C44.1015 25.054 44.1604 24.1848 43.6606 23.6129C43.591 23.5329 43.512 23.4611 43.4256 23.3993Z" fill="#A065AA"/>
</svg>
