<svg width="55" height="35" viewBox="0 0 55 35" fill="none" xmlns="http://www.w3.org/2000/svg">
<path d="M54.9998 9.37009C54.9868 9.78468 54.704 10.142 54.3034 10.2497L27.8179 17.2486C27.6217 17.2946 27.4174 17.2946 27.2212 17.2486L14.1697 13.8142C14.3333 13.5441 14.5804 13.3347 14.8736 13.2176L27.3359 9.28595C27.6404 9.18472 27.8922 8.96659 28.0357 8.67963C28.1792 8.39267 28.2027 8.06044 28.101 7.75615C28.0269 7.54496 27.8942 7.35924 27.7185 7.22072L13.1828 11.6342C12.6028 11.8595 12.2039 12.3982 12.1577 13.0187V23.0771C13.3675 23.5071 14.1802 24.6465 14.1927 25.9302C14.1805 27.0864 13.5175 28.137 12.479 28.6456L12.961 31.2846C13.091 32.103 12.5938 32.6996 11.8211 33.2045C11.7446 33.2504 10.62 34.9943 9.95439 34.9943C9.87296 35.0019 9.79101 35.0019 9.70958 34.9943C8.93466 34.8016 8.43827 34.0455 8.56968 33.258L9.39592 28.4621C8.46964 27.8231 7.96883 26.7275 8.09187 25.6091C8.21491 24.4907 8.94195 23.5301 9.98499 23.1077V12.7127L0.682187 10.2574C0.278889 10.1447 0 9.77729 0 9.35862C0 8.93995 0.278889 8.57252 0.682187 8.45986L27.3665 0.0459286C27.5503 -0.0153095 27.7489 -0.0153095 27.9327 0.0459286L54.3952 8.45986C54.7672 8.60698 55.0084 8.97014 54.9998 9.37009ZM43.9907 15.038L28.384 19.2373C27.8561 19.3361 27.3129 19.3178 26.7928 19.1838L13.9249 15.7035V22.1746C14.9339 22.9462 15.673 24.0171 16.0364 25.2342C19.494 26.5974 23.1619 27.3505 26.8769 27.46C27.3895 27.46 27.9021 27.46 28.407 27.46C36.9524 27.46 43.7077 24.5764 43.9907 20.7212C43.9984 20.7518 43.9907 15.038 43.9907 15.038Z" fill="#009BDF"/>
</svg>
